<svg width="20" height="20" viewBox="0 0 20 20" fill="none" xmlns="http://www.w3.org/2000/svg">
<path fill-rule="evenodd" clip-rule="evenodd" d="M7.59102 12.7068C11.28 12.7068 14.433 13.2658 14.433 15.4988C14.433 17.7318 11.301 18.3068 7.59102 18.3068C3.90102 18.3068 0.749023 17.7528 0.749023 15.5188C0.749023 13.2848 3.88002 12.7068 7.59102 12.7068Z" stroke="#4F5665" stroke-width="1.5" stroke-linecap="round" stroke-linejoin="round"/>
<path fill-rule="evenodd" clip-rule="evenodd" d="M7.59108 9.51979C5.16908 9.51979 3.20508 7.55679 3.20508 5.13479C3.20508 2.71279 5.16908 0.749786 7.59108 0.749786C10.0121 0.749786 11.9761 2.71279 11.9761 5.13479C11.9851 7.54779 10.0351 9.51079 7.62208 9.51979H7.59108Z" stroke="#4F5665" stroke-width="1.5" stroke-linecap="round" stroke-linejoin="round"/>
<path d="M14.4824 8.38159C16.0834 8.15659 17.3164 6.78259 17.3194 5.11959C17.3194 3.48059 16.1244 2.12059 14.5574 1.86359" stroke="#4F5665" stroke-width="1.5" stroke-linecap="round" stroke-linejoin="round"/>
<path d="M16.5947 12.2322C18.1457 12.4632 19.2287 13.0072 19.2287 14.1272C19.2287 14.8982 18.7187 15.3982 17.8947 15.7112" stroke="#4F5665" stroke-width="1.5" stroke-linecap="round" stroke-linejoin="round"/>
</svg>
