<svg width="16" height="10" viewBox="0 0 16 10" fill="none" xmlns="http://www.w3.org/2000/svg">
<path d="M4.00033 4.33333C3.86847 4.33333 3.73958 4.37243 3.62995 4.44568C3.52031 4.51894 3.43486 4.62305 3.38441 4.74487C3.33395 4.86669 3.32074 5.00073 3.34647 5.13006C3.37219 5.25938 3.43569 5.37816 3.52892 5.4714C3.62216 5.56463 3.74094 5.62813 3.87027 5.65385C3.99959 5.67958 4.13363 5.66637 4.25545 5.61591C4.37726 5.56546 4.48138 5.48001 4.55464 5.37038C4.62789 5.26074 4.66699 5.13185 4.66699 5C4.66699 4.82318 4.59675 4.65361 4.47173 4.52859C4.34671 4.40357 4.17714 4.33333 4.00033 4.33333ZM12.0003 4.33333C11.8685 4.33333 11.7396 4.37243 11.6299 4.44568C11.5203 4.51894 11.4349 4.62305 11.3844 4.74487C11.3339 4.86669 11.3207 5.00073 11.3465 5.13006C11.3722 5.25938 11.4357 5.37816 11.5289 5.4714C11.6222 5.56463 11.7409 5.62813 11.8703 5.65385C11.9996 5.67958 12.1336 5.66637 12.2554 5.61591C12.3773 5.56546 12.4814 5.48001 12.5546 5.37038C12.6279 5.26074 12.667 5.13185 12.667 5C12.667 4.82318 12.5968 4.65361 12.4717 4.52859C12.3467 4.40357 12.1771 4.33333 12.0003 4.33333ZM13.3337 0.333328H2.66699C2.13656 0.333328 1.62785 0.544042 1.25278 0.919115C0.877706 1.29419 0.666992 1.8029 0.666992 2.33333V7.66666C0.666992 8.19709 0.877706 8.7058 1.25278 9.08088C1.62785 9.45595 2.13656 9.66666 2.66699 9.66666H13.3337C13.8641 9.66666 14.3728 9.45595 14.7479 9.08088C15.1229 8.7058 15.3337 8.19709 15.3337 7.66666V2.33333C15.3337 1.8029 15.1229 1.29419 14.7479 0.919115C14.3728 0.544042 13.8641 0.333328 13.3337 0.333328ZM14.0003 7.66666C14.0003 7.84347 13.9301 8.01304 13.8051 8.13807C13.68 8.26309 13.5105 8.33333 13.3337 8.33333H2.66699C2.49018 8.33333 2.32061 8.26309 2.19559 8.13807C2.07056 8.01304 2.00033 7.84347 2.00033 7.66666V2.33333C2.00033 2.15652 2.07056 1.98695 2.19559 1.86192C2.32061 1.7369 2.49018 1.66666 2.66699 1.66666H13.3337C13.5105 1.66666 13.68 1.7369 13.8051 1.86192C13.9301 1.98695 14.0003 2.15652 14.0003 2.33333V7.66666ZM8.00033 2.99999C7.60476 2.99999 7.21808 3.11729 6.88918 3.33706C6.56029 3.55682 6.30394 3.86918 6.15257 4.23463C6.00119 4.60008 5.96158 5.00221 6.03875 5.39018C6.11592 5.77814 6.30641 6.1345 6.58611 6.41421C6.86582 6.69391 7.22218 6.8844 7.61014 6.96157C7.99811 7.03874 8.40024 6.99913 8.76569 6.84775C9.13114 6.69638 9.4435 6.44003 9.66326 6.11114C9.88303 5.78224 10.0003 5.39556 10.0003 5C10.0003 4.46956 9.78961 3.96085 9.41454 3.58578C9.03947 3.21071 8.53076 2.99999 8.00033 2.99999ZM8.00033 5.66666C7.86847 5.66666 7.73958 5.62756 7.62994 5.55431C7.52031 5.48105 7.43486 5.37694 7.38441 5.25512C7.33395 5.1333 7.32074 4.99926 7.34647 4.86994C7.37219 4.74061 7.43569 4.62183 7.52892 4.52859C7.62216 4.43536 7.74094 4.37186 7.87027 4.34614C7.99959 4.32041 8.13363 4.33362 8.25545 4.38408C8.37726 4.43453 8.48138 4.51998 8.55464 4.62961C8.62789 4.73925 8.66699 4.86814 8.66699 5C8.66699 5.17681 8.59675 5.34637 8.47173 5.4714C8.34671 5.59642 8.17714 5.66666 8.00033 5.66666Z" fill="#4F5665"/>
</svg>
