<svg width="20"
    height="21"
    viewBox="0 0 20 21"
    fill="none"
    xmlns="http://www.w3.org/2000/svg">
    <path fill-rule="evenodd"
        clip-rule="evenodd"
        d="M17.5039 0.577294C18.1889 0.378019 18.931 0.570249 19.434 1.08253C19.937 1.5938 20.123 2.33957 19.918 3.02999L18.669 7.23188C18.55 7.63144 18.1339 7.85789 17.7359 7.73913C17.3389 7.61936 17.1129 7.19867 17.2319 6.80012L18.481 2.59722C18.551 2.36171 18.4259 2.2027 18.3689 2.14533C18.3119 2.08696 18.1519 1.96014 17.9209 2.02758L1.82937 6.70652C1.57336 6.781 1.51736 6.99537 1.50536 7.08394C1.49436 7.1725 1.49036 7.39392 1.71837 7.53482L5.10449 9.61816C5.4575 9.83555 5.5695 10.3005 5.35249 10.6568C5.21149 10.8883 4.96548 11.0171 4.71247 11.0171C4.57947 11.0171 4.44446 10.9819 4.32246 10.9064L0.936341 8.82206C0.265318 8.40942 -0.0866946 7.66667 0.018309 6.88265C0.123313 6.09762 0.658331 5.47464 1.41336 5.25523L17.5039 0.577294ZM16.0282 10.8492C16.1482 10.4487 16.5652 10.2212 16.9622 10.342C17.3592 10.4618 17.5852 10.8824 17.4662 11.282L15.1441 19.096C14.9191 19.8519 14.2971 20.3833 13.5201 20.4829C13.4331 20.495 13.3471 20.5 13.2611 20.5C12.583 20.5 11.963 20.1518 11.602 19.5539L7.50187 12.7645C7.32286 12.4666 7.36786 12.0841 7.61287 11.8386L13.4341 5.98007C13.7271 5.68518 14.2011 5.68518 14.4941 5.98007C14.7871 6.27496 14.7871 6.75302 14.4941 7.04791L9.08992 12.4877L12.8841 18.7699C13.0221 18.9984 13.2391 18.9964 13.3291 18.9863C13.4171 18.9742 13.6301 18.9199 13.7061 18.6643L16.0282 10.8492Z"
        fill="#2948ff" />
</svg>
