<svg width="22" height="22" viewBox="0 0 22 22" fill="none" xmlns="http://www.w3.org/2000/svg">
<path d="M11.4135 17.3812L16.1419 20.3769C16.7463 20.7598 17.4967 20.1903 17.3173 19.4847L15.9512 14.1108C15.9127 13.9611 15.9173 13.8036 15.9643 13.6564C16.0114 13.5092 16.0991 13.3783 16.2172 13.2787L20.4573 9.74959C21.0144 9.28588 20.7269 8.36126 20.0111 8.31481L14.4738 7.95544C14.3247 7.94479 14.1816 7.89198 14.0613 7.80317C13.941 7.71437 13.8484 7.59321 13.7943 7.45382L11.7292 2.25323C11.673 2.10528 11.5732 1.9779 11.443 1.88802C11.3127 1.79814 11.1582 1.75 11 1.75C10.8418 1.75 10.6873 1.79814 10.557 1.88802C10.4268 1.9779 10.327 2.10528 10.2708 2.25323L8.20568 7.45382C8.15157 7.59321 8.05897 7.71437 7.93868 7.80317C7.81838 7.89198 7.67533 7.94479 7.52618 7.95544L1.98894 8.31481C1.27315 8.36126 0.985597 9.28588 1.54272 9.74959L5.78278 13.2787C5.90095 13.3783 5.9886 13.5092 6.03566 13.6564C6.08272 13.8036 6.08727 13.9611 6.0488 14.1108L4.78188 19.0945C4.56667 19.9412 5.46715 20.6246 6.19243 20.1651L10.5865 17.3812C10.71 17.3025 10.8535 17.2607 11 17.2607C11.1465 17.2607 11.29 17.3025 11.4135 17.3812V17.3812Z" stroke="#4F5665" stroke-width="2" stroke-linecap="round" stroke-linejoin="round"/>
</svg>
