<svg width="20" height="22" viewBox="0 0 20 22" fill="none" xmlns="http://www.w3.org/2000/svg">
<mask id="mask0_2809_317" style="mask-type:luminance" maskUnits="userSpaceOnUse" x="0" y="7" width="20" height="15">
<path fill-rule="evenodd" clip-rule="evenodd" d="M0 7.2941H19.9996V21.0381H0V7.2941Z" fill="white"/>
</mask>
<g mask="url(#mask0_2809_317)">
<path fill-rule="evenodd" clip-rule="evenodd" d="M15.565 21.0381H4.435C1.99 21.0381 0 19.0491 0 16.6031V11.7281C0 9.2831 1.99 7.2941 4.435 7.2941H5.368C5.782 7.2941 6.118 7.6301 6.118 8.0441C6.118 8.4581 5.782 8.7941 5.368 8.7941H4.435C2.816 8.7941 1.5 10.1101 1.5 11.7281V16.6031C1.5 18.2221 2.816 19.5381 4.435 19.5381H15.565C17.183 19.5381 18.5 18.2221 18.5 16.6031V11.7191C18.5 10.1061 17.188 8.7941 15.576 8.7941H14.633C14.219 8.7941 13.883 8.4581 13.883 8.0441C13.883 7.6301 14.219 7.2941 14.633 7.2941H15.576C18.015 7.2941 20 9.2791 20 11.7191V16.6031C20 19.0491 18.01 21.0381 15.565 21.0381Z" fill="#4F5665"/>
</g>
<mask id="mask1_2809_317" style="mask-type:luminance" maskUnits="userSpaceOnUse" x="9" y="0" width="2" height="15">
<path fill-rule="evenodd" clip-rule="evenodd" d="M9.25 0.500092H10.75V14.041H9.25V0.500092Z" fill="white"/>
</mask>
<g mask="url(#mask1_2809_317)">
<path fill-rule="evenodd" clip-rule="evenodd" d="M10 14.041C9.586 14.041 9.25 13.705 9.25 13.291V1.25C9.25 0.836 9.586 0.5 10 0.5C10.414 0.5 10.75 0.836 10.75 1.25V13.291C10.75 13.705 10.414 14.041 10 14.041Z" fill="#4F5665"/>
</g>
<path fill-rule="evenodd" clip-rule="evenodd" d="M7.08471 4.92868C6.89371 4.92868 6.70171 4.85568 6.55571 4.70968C6.26271 4.41768 6.26071 3.94368 6.55371 3.64968L9.46871 0.72168C9.74971 0.43868 10.2497 0.43868 10.5307 0.72168L13.4467 3.64968C13.7387 3.94368 13.7377 4.41768 13.4447 4.70968C13.1507 5.00168 12.6767 5.00168 12.3847 4.70768L9.99971 2.31368L7.61571 4.70768C7.46971 4.85568 7.27671 4.92868 7.08471 4.92868Z" fill="#4F5665"/>
</svg>
